<?xml version="1.0" encoding="UTF-8" standalone="no"?>
<!DOCTYPE svg PUBLIC "-//W3C//DTD SVG 1.1//EN"
 "http://www.w3.org/Graphics/SVG/1.1/DTD/svg11.dtd">
<!-- Generated by graphviz version 9.0.0 (20230911.1827)
 -->
<!-- Pages: 1 -->
<svg width="1567pt" height="4441pt"
 viewBox="0.00 0.00 1566.80 4441.15" xmlns="http://www.w3.org/2000/svg" xmlns:xlink="http://www.w3.org/1999/xlink">
<g id="graph0" class="graph" transform="scale(1 1) rotate(0) translate(72 4369.15)">
<polygon fill="white" stroke="none" points="-72,72 -72,-4369.15 1494.8,-4369.15 1494.8,72 -72,72"/>
<g id="legend" class="cluster">
<title>cluster_legend</title>
<polygon fill="ghostwhite" stroke="#b3b3b3" points="628.8,-8 628.8,-306.25 1414.8,-306.25 1414.8,-8 628.8,-8"/>
<text text-anchor="start" x="976.05" y="-278.55" font-family="sans-serif" font-weight="bold" font-size="26.00">Legend</text>
</g>
<!-- place order -->
<g id="node1" class="node">
<title>place order</title>
<g id="a_node1"><a xlink:title="OT customers: 45, mean = 1.0, median = 1, min = 1, max = 1&#10;OT items: 168, mean = 3.73, median = 3, min = 1, max = 8&#10;OT orders: 45, mean = 1.0, median = 1, min = 1, max = 1&#10;OT products: 168, mean = 3.73, median = 3, min = 1, max = 8">
<defs>
<linearGradient id="node1_l_0" gradientUnits="userSpaceOnUse" x1="707.8" y1="-4297.15" x2="707.8" y2="-4214.05" >
<stop offset="0" style="stop-color:lightcyan;stop-opacity:1.;"/>
<stop offset="1" style="stop-color:powderblue;stop-opacity:1.;"/>
</linearGradient>
</defs>
<path fill="url(#node1_l_0)" stroke="white" stroke-width="2" d="M787.97,-4297.15C787.97,-4297.15 627.62,-4297.15 627.62,-4297.15 621.62,-4297.15 615.62,-4291.15 615.62,-4285.15 615.62,-4285.15 615.62,-4226.05 615.62,-4226.05 615.62,-4220.05 621.62,-4214.05 627.62,-4214.05 627.62,-4214.05 787.97,-4214.05 787.97,-4214.05 793.97,-4214.05 799.97,-4220.05 799.97,-4226.05 799.97,-4226.05 799.97,-4285.15 799.97,-4285.15 799.97,-4291.15 793.97,-4297.15 787.97,-4297.15"/>
<text text-anchor="start" x="644.42" y="-4244.6" font-family="sans-serif" font-size="25.00">place order</text>
</a>
</g>
</g>
<!-- o_27 -->
<g id="node5" class="node">
<title>o_27</title>
<ellipse fill="#64ce9f" stroke="black" cx="483.8" cy="-4166.25" rx="10.8" ry="10.8"/>
<text text-anchor="middle" x="461.75" y="-4179.05" font-family="sans-serif" font-size="20.00">43</text>
</g>
<!-- place order&#45;&gt;o_27 -->
<g id="edge21" class="edge">
<title>place order&#45;&gt;o_27</title>
<path fill="none" stroke="black" d="M614.75,-4218.31C567.39,-4199.85 515.37,-4179.56 493.91,-4171.19"/>
</g>
<!-- o_13 -->
<g id="node19" class="node">
<title>o_13</title>
<ellipse fill="#6493ce" stroke="black" cx="733.8" cy="-4029.05" rx="10.8" ry="10.8"/>
</g>
<!-- place order&#45;&gt;o_13 -->
<g id="edge47" class="edge">
<title>place order&#45;&gt;o_13</title>
<path fill="none" stroke="black" d="M712.6,-4213.15C718.79,-4159.68 729.18,-4069.96 732.64,-4040.08"/>
</g>
<!-- o_15 -->
<g id="node21" class="node">
<title>o_15</title>
<ellipse fill="#6493ce" stroke="black" cx="574.8" cy="-3950.45" rx="10.8" ry="10.8"/>
</g>
<!-- place order&#45;&gt;o_15 -->
<g id="edge44" class="edge">
<title>place order&#45;&gt;o_15</title>
<path fill="none" stroke="black" d="M795.53,-4213.17C809.15,-4200.96 818.8,-4185.76 818.8,-4167.25 818.8,-4167.25 818.8,-4167.25 818.8,-4028.05 818.8,-3978.43 632.82,-3957.07 585.6,-3952.44"/>
</g>
<!-- o_16 -->
<g id="node22" class="node">
<title>o_16</title>
<ellipse fill="#6493ce" stroke="black" cx="667.8" cy="-4166.25" rx="10.8" ry="10.8"/>
<text text-anchor="middle" x="651.38" y="-4179.05" font-family="sans-serif" font-size="20.00">8</text>
</g>
<!-- place order&#45;&gt;o_16 -->
<g id="edge39" class="edge">
<title>place order&#45;&gt;o_16</title>
<path fill="none" stroke="black" d="M688.85,-4213.23C682.55,-4199.47 676.11,-4185.41 672.04,-4176.52"/>
</g>
<!-- confirm order -->
<g id="node2" class="node">
<title>confirm order</title>
<g id="a_node2"><a xlink:title="OT customers: 43, mean = 1.0, median = 1, min = 1, max = 1&#10;OT employees: 43, mean = 1.0, median = 1, min = 1, max = 1&#10;OT items: 159, mean = 3.7, median = 3, min = 1, max = 8&#10;OT orders: 43, mean = 1.0, median = 1, min = 1, max = 1&#10;OT products: 159, mean = 3.7, median = 3, min = 1, max = 8">
<defs>
<linearGradient id="node2_l_1" gradientUnits="userSpaceOnUse" x1="372.8" y1="-3335.55" x2="372.8" y2="-3252.45" >
<stop offset="0" style="stop-color:lightcyan;stop-opacity:1.;"/>
<stop offset="1" style="stop-color:powderblue;stop-opacity:1.;"/>
</linearGradient>
</defs>
<path fill="url(#node2_l_1)" stroke="white" stroke-width="2" d="M464.22,-3335.55C464.22,-3335.55 281.37,-3335.55 281.37,-3335.55 275.37,-3335.55 269.37,-3329.55 269.37,-3323.55 269.37,-3323.55 269.37,-3264.45 269.37,-3264.45 269.37,-3258.45 275.37,-3252.45 281.37,-3252.45 281.37,-3252.45 464.22,-3252.45 464.22,-3252.45 470.22,-3252.45 476.22,-3258.45 476.22,-3264.45 476.22,-3264.45 476.22,-3323.55 476.22,-3323.55 476.22,-3329.55 470.22,-3335.55 464.22,-3335.55"/>
<text text-anchor="start" x="298.17" y="-3283" font-family="sans-serif" font-size="25.00">confirm order</text>
</a>
</g>
</g>
<!-- o_28 -->
<g id="node6" class="node">
<title>o_28</title>
<ellipse fill="#64ce9f" stroke="black" cx="377.8" cy="-3173.9" rx="10.8" ry="10.8"/>
<text text-anchor="middle" x="355.75" y="-3186.7" font-family="sans-serif" font-size="20.00">20</text>
</g>
<!-- confirm order&#45;&gt;o_28 -->
<g id="edge3" class="edge">
<title>confirm order&#45;&gt;o_28</title>
<path fill="none" stroke="black" d="M374.55,-3251.69C375.56,-3227.75 376.76,-3199.51 377.38,-3184.85"/>
</g>
<!-- o_29 -->
<g id="node7" class="node">
<title>o_29</title>
<ellipse fill="#64ce9f" stroke="black" cx="178.8" cy="-3173.9" rx="10.8" ry="10.8"/>
<text text-anchor="middle" x="162.38" y="-3186.7" font-family="sans-serif" font-size="20.00">1</text>
</g>
<!-- confirm order&#45;&gt;o_29 -->
<g id="edge6" class="edge">
<title>confirm order&#45;&gt;o_29</title>
<path fill="none" stroke="black" d="M304.68,-3251.53C261,-3224.94 208.74,-3193.13 187.97,-3180.48"/>
</g>
<!-- pay order -->
<g id="node3" class="node">
<title>pay order</title>
<g id="a_node3"><a xlink:title="OT items: 74, mean = 3.7, median = 4, min = 1, max = 8&#10;OT orders: 20, mean = 1.0, median = 1, min = 1, max = 1&#10;OT products: 74, mean = 3.7, median = 4, min = 1, max = 8">
<defs>
<linearGradient id="node3_l_2" gradientUnits="userSpaceOnUse" x1="378.8" y1="-2841.15" x2="378.8" y2="-2758.05" >
<stop offset="0" style="stop-color:lightcyan;stop-opacity:1.;"/>
<stop offset="1" style="stop-color:powderblue;stop-opacity:1.;"/>
</linearGradient>
</defs>
<path fill="url(#node3_l_2)" stroke="white" stroke-width="2" d="M449.22,-2841.15C449.22,-2841.15 308.37,-2841.15 308.37,-2841.15 302.37,-2841.15 296.37,-2835.15 296.37,-2829.15 296.37,-2829.15 296.37,-2770.05 296.37,-2770.05 296.37,-2764.05 302.37,-2758.05 308.37,-2758.05 308.37,-2758.05 449.22,-2758.05 449.22,-2758.05 455.22,-2758.05 461.22,-2764.05 461.22,-2770.05 461.22,-2770.05 461.22,-2829.15 461.22,-2829.15 461.22,-2835.15 455.22,-2841.15 449.22,-2841.15"/>
<text text-anchor="start" x="325.17" y="-2788.6" font-family="sans-serif" font-size="25.00">pay order</text>
</a>
</g>
</g>
<!-- o_19 -->
<g id="node24" class="node">
<title>o_19</title>
<ellipse fill="#6493ce" stroke="black" cx="378.8" cy="-2679.5" rx="10.8" ry="10.8"/>
<text text-anchor="middle" x="356.75" y="-2692.3" font-family="sans-serif" font-size="20.00">27</text>
</g>
<!-- pay order&#45;&gt;o_19 -->
<g id="edge31" class="edge">
<title>pay order&#45;&gt;o_19</title>
<path fill="none" stroke="black" d="M378.8,-2757.29C378.8,-2733.35 378.8,-2705.11 378.8,-2690.45"/>
</g>
<!-- payment reminder -->
<g id="node4" class="node">
<title>payment reminder</title>
<g id="a_node4"><a xlink:title="OT items: 6, mean = 6.0, median = 6, min = 6, max = 6&#10;OT orders: 1, mean = 1.0, median = 1, min = 1, max = 1&#10;OT products: 6, mean = 6.0, median = 6, min = 6, max = 6">
<defs>
<linearGradient id="node4_l_3" gradientUnits="userSpaceOnUse" x1="130.8" y1="-682.35" x2="130.8" y2="-599.25" >
<stop offset="0" style="stop-color:lightcyan;stop-opacity:1.;"/>
<stop offset="1" style="stop-color:powderblue;stop-opacity:1.;"/>
</linearGradient>
</defs>
<path fill="url(#node4_l_3)" stroke="white" stroke-width="2" d="M249.6,-682.35C249.6,-682.35 12,-682.35 12,-682.35 6,-682.35 0,-676.35 0,-670.35 0,-670.35 0,-611.25 0,-611.25 0,-605.25 6,-599.25 12,-599.25 12,-599.25 249.6,-599.25 249.6,-599.25 255.6,-599.25 261.6,-605.25 261.6,-611.25 261.6,-611.25 261.6,-670.35 261.6,-670.35 261.6,-676.35 255.6,-682.35 249.6,-682.35"/>
<text text-anchor="start" x="28.8" y="-629.8" font-family="sans-serif" font-size="25.00">payment reminder</text>
</a>
</g>
</g>
<!-- i_28 -->
<g id="node8" class="node">
<title>i_28</title>
<polygon fill="#64ce9f" stroke="black" points="328.8,-3902.65 318,-3891.85 328.8,-3881.05 339.6,-3891.85 328.8,-3902.65"/>
<text text-anchor="middle" x="306.75" y="-3904.65" font-family="sans-serif" font-size="20.00">43</text>
</g>
<!-- o_27&#45;&gt;i_28 -->
<g id="edge20" class="edge">
<title>o_27&#45;&gt;i_28</title>
<path fill="none" stroke="black" d="M473.23,-4163.54C439.52,-4157.8 336.8,-4137.91 336.8,-4108.65 336.8,-4108.65 336.8,-4108.65 336.8,-3949.45 336.8,-3932.18 333.1,-3912.24 330.74,-3901.24"/>
<text text-anchor="start" x="336.8" y="-4020.55" font-family="sans-serif" font-size="20.00" fill="#64ce9f">freq = 43 / dep = 0.98</text>
</g>
<!-- i_29 -->
<g id="node9" class="node">
<title>i_29</title>
<polygon fill="#64ce9f" stroke="black" points="378.8,-2899.75 368,-2888.95 378.8,-2878.15 389.6,-2888.95 378.8,-2899.75"/>
<text text-anchor="middle" x="356.75" y="-2901.75" font-family="sans-serif" font-size="20.00">20</text>
</g>
<!-- o_28&#45;&gt;i_29 -->
<g id="edge2" class="edge">
<title>o_28&#45;&gt;i_29</title>
<path fill="none" stroke="black" d="M377.99,-3162.68C378.28,-3146.37 378.8,-3113.46 378.8,-3085.55 378.8,-3085.55 378.8,-3085.55 378.8,-2946.25 378.8,-2930.22 378.8,-2911.62 378.8,-2900.33"/>
<text text-anchor="start" x="378.8" y="-3017.75" font-family="sans-serif" font-size="20.00" fill="#64ce9f">freq = 20 / dep = 0.95</text>
<text text-anchor="start" x="378.8" y="-2996.75" font-family="sans-serif" font-size="20.00" fill="#6493ce">freq = 20 / dep = 0.95</text>
</g>
<!-- i_30 -->
<g id="node10" class="node">
<title>i_30</title>
<polygon fill="#64ce9f" stroke="black" points="127.8,-2899.75 117,-2888.95 127.8,-2878.15 138.6,-2888.95 127.8,-2899.75"/>
<text text-anchor="middle" x="111.38" y="-2901.75" font-family="sans-serif" font-size="20.00">1</text>
</g>
<!-- o_29&#45;&gt;i_30 -->
<g id="edge5" class="edge">
<title>o_29&#45;&gt;i_30</title>
<path fill="none" stroke="black" d="M171.27,-3166.01C157.09,-3152.21 127.8,-3119.62 127.8,-3085.55 127.8,-3085.55 127.8,-3085.55 127.8,-2946.25 127.8,-2930.22 127.8,-2911.62 127.8,-2900.33"/>
<text text-anchor="start" x="127.8" y="-3007.25" font-family="sans-serif" font-size="20.00" fill="#64ce9f">freq = 1 / dep = 0.50</text>
</g>
<!-- i_28&#45;&gt;confirm order -->
<g id="edge19" class="edge">
<title>i_28&#45;&gt;confirm order</title>
<path fill="none" stroke="black" d="M328.52,-3880.88C328.22,-3869.63 327.8,-3850.78 327.8,-3834.55 327.8,-3834.55 327.8,-3834.55 327.8,-3382.35 327.8,-3369.95 331.43,-3357.54 336.63,-3346.14"/>
<polygon fill="black" stroke="black" points="341,-3337.49 340.5,-3348.45 339.29,-3340.87 336.49,-3346.42 336.49,-3346.42 336.49,-3346.42 339.29,-3340.87 332.47,-3344.39 341,-3337.49"/>
</g>
<!-- i_29&#45;&gt;pay order -->
<g id="edge1" class="edge">
<title>i_29&#45;&gt;pay order</title>
<path fill="none" stroke="black" d="M378.8,-2877.59C378.8,-2871.16 378.8,-2862.35 378.8,-2852.99"/>
<polygon fill="black" stroke="black" points="378.8,-2843.07 383.3,-2853.07 378.8,-2846.85 378.8,-2853.07 378.8,-2853.07 378.8,-2853.07 378.8,-2846.85 374.3,-2853.07 378.8,-2843.07"/>
</g>
<!-- i_30&#45;&gt;payment reminder -->
<g id="edge4" class="edge">
<title>i_30&#45;&gt;payment reminder</title>
<path fill="none" stroke="black" d="M127.8,-2877.46C127.8,-2861.06 127.8,-2828.35 127.8,-2800.6 127.8,-2800.6 127.8,-2800.6 127.8,-729.15 127.8,-717.77 128.06,-705.55 128.42,-693.97"/>
<polygon fill="black" stroke="black" points="128.76,-684.33 132.91,-694.48 128.63,-688.11 128.41,-694.33 128.41,-694.33 128.41,-694.33 128.63,-688.11 123.91,-694.17 128.76,-684.33"/>
</g>
<!-- pick item -->
<g id="node11" class="node">
<title>pick item</title>
<g id="a_node11"><a xlink:title="OT employees: 138, mean = 1.0, median = 1, min = 1, max = 1&#10;OT items: 138, mean = 1.0, median = 1, min = 1, max = 1&#10;OT products: 138, mean = 1.0, median = 1, min = 1, max = 1">
<defs>
<linearGradient id="node11_l_4" gradientUnits="userSpaceOnUse" x1="624.8" y1="-2721.05" x2="624.8" y2="-2637.95" >
<stop offset="0" style="stop-color:lightcyan;stop-opacity:1.;"/>
<stop offset="1" style="stop-color:powderblue;stop-opacity:1.;"/>
</linearGradient>
</defs>
<path fill="url(#node11_l_4)" stroke="white" stroke-width="2" d="M691.1,-2721.05C691.1,-2721.05 558.5,-2721.05 558.5,-2721.05 552.5,-2721.05 546.5,-2715.05 546.5,-2709.05 546.5,-2709.05 546.5,-2649.95 546.5,-2649.95 546.5,-2643.95 552.5,-2637.95 558.5,-2637.95 558.5,-2637.95 691.1,-2637.95 691.1,-2637.95 697.1,-2637.95 703.1,-2643.95 703.1,-2649.95 703.1,-2649.95 703.1,-2709.05 703.1,-2709.05 703.1,-2715.05 697.1,-2721.05 691.1,-2721.05"/>
<text text-anchor="start" x="575.3" y="-2668.5" font-family="sans-serif" font-size="25.00">pick item</text>
</a>
</g>
</g>
<!-- o_17 -->
<g id="node23" class="node">
<title>o_17</title>
<ellipse fill="#6493ce" stroke="black" cx="624.8" cy="-2590.15" rx="10.8" ry="10.8"/>
<text text-anchor="middle" x="602.75" y="-2602.95" font-family="sans-serif" font-size="20.00">71</text>
</g>
<!-- pick item&#45;&gt;o_17 -->
<g id="edge35" class="edge">
<title>pick item&#45;&gt;o_17</title>
<path fill="none" stroke="black" d="M624.8,-2637.13C624.8,-2623.72 624.8,-2610.03 624.8,-2601.11"/>
</g>
<!-- create package -->
<g id="node12" class="node">
<title>create package</title>
<g id="a_node12"><a xlink:title="OT employees: 14, mean = 1.0, median = 1, min = 1, max = 1&#10;OT items: 99, mean = 7.07, median = 6, min = 2, max = 14&#10;OT packages: 14, mean = 1.0, median = 1, min = 1, max = 1&#10;OT products: 99, mean = 7.07, median = 6, min = 2, max = 14">
<defs>
<linearGradient id="node12_l_5" gradientUnits="userSpaceOnUse" x1="513.8" y1="-2230.55" x2="513.8" y2="-2147.45" >
<stop offset="0" style="stop-color:lightcyan;stop-opacity:1.;"/>
<stop offset="1" style="stop-color:powderblue;stop-opacity:1.;"/>
</linearGradient>
</defs>
<path fill="url(#node12_l_5)" stroke="white" stroke-width="2" d="M617.6,-2230.55C617.6,-2230.55 410,-2230.55 410,-2230.55 404,-2230.55 398,-2224.55 398,-2218.55 398,-2218.55 398,-2159.45 398,-2159.45 398,-2153.45 404,-2147.45 410,-2147.45 410,-2147.45 617.6,-2147.45 617.6,-2147.45 623.6,-2147.45 629.6,-2153.45 629.6,-2159.45 629.6,-2159.45 629.6,-2218.55 629.6,-2218.55 629.6,-2224.55 623.6,-2230.55 617.6,-2230.55"/>
<text text-anchor="start" x="426.8" y="-2178" font-family="sans-serif" font-size="25.00">create package</text>
</a>
</g>
</g>
<!-- o_20 -->
<g id="node25" class="node">
<title>o_20</title>
<ellipse fill="#6493ce" stroke="black" cx="513.8" cy="-2099.65" rx="10.8" ry="10.8"/>
<text text-anchor="middle" x="491.75" y="-2112.45" font-family="sans-serif" font-size="20.00">95</text>
</g>
<!-- create package&#45;&gt;o_20 -->
<g id="edge9" class="edge">
<title>create package&#45;&gt;o_20</title>
<path fill="none" stroke="black" d="M513.8,-2146.63C513.8,-2133.22 513.8,-2119.53 513.8,-2110.61"/>
</g>
<!-- send package -->
<g id="node13" class="node">
<title>send package</title>
<g id="a_node13"><a xlink:title="OT employees: 26, mean = 2.0, median = 2, min = 2, max = 2&#10;OT items: 95, mean = 7.31, median = 7, min = 2, max = 14&#10;OT packages: 13, mean = 1.0, median = 1, min = 1, max = 1&#10;OT products: 95, mean = 7.31, median = 7, min = 2, max = 14">
<defs>
<linearGradient id="node13_l_6" gradientUnits="userSpaceOnUse" x1="513.8" y1="-1838.25" x2="513.8" y2="-1755.15" >
<stop offset="0" style="stop-color:lightcyan;stop-opacity:1.;"/>
<stop offset="1" style="stop-color:powderblue;stop-opacity:1.;"/>
</linearGradient>
</defs>
<path fill="url(#node13_l_6)" stroke="white" stroke-width="2" d="M610.1,-1838.25C610.1,-1838.25 417.5,-1838.25 417.5,-1838.25 411.5,-1838.25 405.5,-1832.25 405.5,-1826.25 405.5,-1826.25 405.5,-1767.15 405.5,-1767.15 405.5,-1761.15 411.5,-1755.15 417.5,-1755.15 417.5,-1755.15 610.1,-1755.15 610.1,-1755.15 616.1,-1755.15 622.1,-1761.15 622.1,-1767.15 622.1,-1767.15 622.1,-1826.25 622.1,-1826.25 622.1,-1832.25 616.1,-1838.25 610.1,-1838.25"/>
<text text-anchor="start" x="434.3" y="-1785.7" font-family="sans-serif" font-size="25.00">send package</text>
</a>
</g>
</g>
<!-- o_21 -->
<g id="node26" class="node">
<title>o_21</title>
<ellipse fill="#6493ce" stroke="black" cx="385.8" cy="-1707.35" rx="10.8" ry="10.8"/>
<text text-anchor="middle" x="363.75" y="-1720.15" font-family="sans-serif" font-size="20.00">53</text>
</g>
<!-- send package&#45;&gt;o_21 -->
<g id="edge30" class="edge">
<title>send package&#45;&gt;o_21</title>
<path fill="none" stroke="black" d="M453.17,-1754.33C430.17,-1738.63 406.58,-1722.53 394.35,-1714.18"/>
</g>
<!-- o_22 -->
<g id="node27" class="node">
<title>o_22</title>
<ellipse fill="#6493ce" stroke="black" cx="533.8" cy="-1707.35" rx="10.8" ry="10.8"/>
<text text-anchor="middle" x="511.75" y="-1720.15" font-family="sans-serif" font-size="20.00">30</text>
</g>
<!-- send package&#45;&gt;o_22 -->
<g id="edge27" class="edge">
<title>send package&#45;&gt;o_22</title>
<path fill="none" stroke="black" d="M523.27,-1754.33C526.34,-1740.92 529.48,-1727.23 531.52,-1718.31"/>
</g>
<!-- package delivered -->
<g id="node14" class="node">
<title>package delivered</title>
<g id="a_node14"><a xlink:title="OT employees: 11, mean = 1.0, median = 1, min = 1, max = 1&#10;OT items: 83, mean = 7.55, median = 7, min = 3, max = 14&#10;OT packages: 11, mean = 1.0, median = 1, min = 1, max = 1&#10;OT products: 83, mean = 7.55, median = 7, min = 3, max = 14">
<defs>
<linearGradient id="node14_l_7" gradientUnits="userSpaceOnUse" x1="314.8" y1="-1053.65" x2="314.8" y2="-970.55" >
<stop offset="0" style="stop-color:lightcyan;stop-opacity:1.;"/>
<stop offset="1" style="stop-color:powderblue;stop-opacity:1.;"/>
</linearGradient>
</defs>
<path fill="url(#node14_l_7)" stroke="white" stroke-width="2" d="M434.72,-1053.65C434.72,-1053.65 194.87,-1053.65 194.87,-1053.65 188.87,-1053.65 182.87,-1047.65 182.87,-1041.65 182.87,-1041.65 182.87,-982.55 182.87,-982.55 182.87,-976.55 188.87,-970.55 194.87,-970.55 194.87,-970.55 434.72,-970.55 434.72,-970.55 440.72,-970.55 446.72,-976.55 446.72,-982.55 446.72,-982.55 446.72,-1041.65 446.72,-1041.65 446.72,-1047.65 440.72,-1053.65 434.72,-1053.65"/>
<text text-anchor="start" x="211.67" y="-1001.1" font-family="sans-serif" font-size="25.00">package delivered</text>
</a>
</g>
</g>
<!-- o_23 -->
<g id="node28" class="node">
<title>o_23</title>
<ellipse fill="#6493ce" stroke="black" cx="285.8" cy="-922.75" rx="10.8" ry="10.8"/>
<text text-anchor="middle" x="269.38" y="-935.55" font-family="sans-serif" font-size="20.00">5</text>
</g>
<!-- package delivered&#45;&gt;o_23 -->
<g id="edge18" class="edge">
<title>package delivered&#45;&gt;o_23</title>
<path fill="none" stroke="black" d="M301.06,-969.73C296.56,-956.15 291.95,-942.27 288.99,-933.36"/>
</g>
<!-- item out of stock -->
<g id="node15" class="node">
<title>item out of stock</title>
<g id="a_node15"><a xlink:title="OT employees: 26, mean = 1.0, median = 1, min = 1, max = 1&#10;OT items: 26, mean = 1.0, median = 1, min = 1, max = 1&#10;OT products: 26, mean = 1.0, median = 1, min = 1, max = 1">
<defs>
<linearGradient id="node15_l_8" gradientUnits="userSpaceOnUse" x1="636.8" y1="-3668.85" x2="636.8" y2="-3585.75" >
<stop offset="0" style="stop-color:lightcyan;stop-opacity:1.;"/>
<stop offset="1" style="stop-color:powderblue;stop-opacity:1.;"/>
</linearGradient>
</defs>
<path fill="url(#node15_l_8)" stroke="white" stroke-width="2" d="M745.1,-3668.85C745.1,-3668.85 528.5,-3668.85 528.5,-3668.85 522.5,-3668.85 516.5,-3662.85 516.5,-3656.85 516.5,-3656.85 516.5,-3597.75 516.5,-3597.75 516.5,-3591.75 522.5,-3585.75 528.5,-3585.75 528.5,-3585.75 745.1,-3585.75 745.1,-3585.75 751.1,-3585.75 757.1,-3591.75 757.1,-3597.75 757.1,-3597.75 757.1,-3656.85 757.1,-3656.85 757.1,-3662.85 751.1,-3668.85 745.1,-3668.85"/>
<text text-anchor="start" x="545.3" y="-3616.3" font-family="sans-serif" font-size="25.00">item out of stock</text>
</a>
</g>
</g>
<!-- o_24 -->
<g id="node29" class="node">
<title>o_24</title>
<ellipse fill="#6493ce" stroke="black" cx="614.8" cy="-3537.95" rx="10.8" ry="10.8"/>
<text text-anchor="middle" x="592.75" y="-3550.75" font-family="sans-serif" font-size="20.00">25</text>
</g>
<!-- item out of stock&#45;&gt;o_24 -->
<g id="edge15" class="edge">
<title>item out of stock&#45;&gt;o_24</title>
<path fill="none" stroke="black" d="M626.38,-3584.93C623,-3571.52 619.55,-3557.83 617.31,-3548.91"/>
</g>
<!-- reorder item -->
<g id="node16" class="node">
<title>reorder item</title>
<g id="a_node16"><a xlink:title="OT employees: 25, mean = 1.0, median = 1, min = 1, max = 1&#10;OT items: 25, mean = 1.0, median = 1, min = 1, max = 1&#10;OT products: 25, mean = 1.0, median = 1, min = 1, max = 1">
<defs>
<linearGradient id="node16_l_9" gradientUnits="userSpaceOnUse" x1="621.8" y1="-3215.45" x2="621.8" y2="-3132.35" >
<stop offset="0" style="stop-color:lightcyan;stop-opacity:1.;"/>
<stop offset="1" style="stop-color:powderblue;stop-opacity:1.;"/>
</linearGradient>
</defs>
<path fill="url(#node16_l_9)" stroke="white" stroke-width="2" d="M706.47,-3215.45C706.47,-3215.45 537.12,-3215.45 537.12,-3215.45 531.12,-3215.45 525.12,-3209.45 525.12,-3203.45 525.12,-3203.45 525.12,-3144.35 525.12,-3144.35 525.12,-3138.35 531.12,-3132.35 537.12,-3132.35 537.12,-3132.35 706.47,-3132.35 706.47,-3132.35 712.47,-3132.35 718.47,-3138.35 718.47,-3144.35 718.47,-3144.35 718.47,-3203.45 718.47,-3203.45 718.47,-3209.45 712.47,-3215.45 706.47,-3215.45"/>
<text text-anchor="start" x="553.92" y="-3162.9" font-family="sans-serif" font-size="25.00">reorder item</text>
</a>
</g>
</g>
<!-- o_25 -->
<g id="node30" class="node">
<title>o_25</title>
<ellipse fill="#6493ce" stroke="black" cx="624.8" cy="-3084.55" rx="10.8" ry="10.8"/>
<text text-anchor="middle" x="602.75" y="-3097.35" font-family="sans-serif" font-size="20.00">13</text>
</g>
<!-- reorder item&#45;&gt;o_25 -->
<g id="edge24" class="edge">
<title>reorder item&#45;&gt;o_25</title>
<path fill="none" stroke="black" d="M623.22,-3131.53C623.68,-3118.12 624.15,-3104.43 624.46,-3095.51"/>
</g>
<!-- failed delivery -->
<g id="node17" class="node">
<title>failed delivery</title>
<g id="a_node17"><a xlink:title="OT employees: 4, mean = 1.0, median = 1, min = 1, max = 1&#10;OT items: 44, mean = 11.0, median = 12, min = 5, max = 14&#10;OT packages: 4, mean = 1.0, median = 1, min = 1, max = 1&#10;OT products: 44, mean = 11.0, median = 12, min = 5, max = 14">
<defs>
<linearGradient id="node17_l_10" gradientUnits="userSpaceOnUse" x1="496.8" y1="-1445.95" x2="496.8" y2="-1362.85" >
<stop offset="0" style="stop-color:lightcyan;stop-opacity:1.;"/>
<stop offset="1" style="stop-color:powderblue;stop-opacity:1.;"/>
</linearGradient>
</defs>
<path fill="url(#node17_l_10)" stroke="white" stroke-width="2" d="M590.47,-1445.95C590.47,-1445.95 403.12,-1445.95 403.12,-1445.95 397.12,-1445.95 391.12,-1439.95 391.12,-1433.95 391.12,-1433.95 391.12,-1374.85 391.12,-1374.85 391.12,-1368.85 397.12,-1362.85 403.12,-1362.85 403.12,-1362.85 590.47,-1362.85 590.47,-1362.85 596.47,-1362.85 602.47,-1368.85 602.47,-1374.85 602.47,-1374.85 602.47,-1433.95 602.47,-1433.95 602.47,-1439.95 596.47,-1445.95 590.47,-1445.95"/>
<text text-anchor="start" x="419.92" y="-1393.4" font-family="sans-serif" font-size="25.00">failed delivery</text>
</a>
</g>
</g>
<!-- o_26 -->
<g id="node31" class="node">
<title>o_26</title>
<ellipse fill="#6493ce" stroke="black" cx="472.8" cy="-1315.05" rx="10.8" ry="10.8"/>
<text text-anchor="middle" x="450.75" y="-1327.85" font-family="sans-serif" font-size="20.00">30</text>
</g>
<!-- failed delivery&#45;&gt;o_26 -->
<g id="edge12" class="edge">
<title>failed delivery&#45;&gt;o_26</title>
<path fill="none" stroke="black" d="M485.43,-1362.03C481.75,-1348.62 477.99,-1334.93 475.54,-1326.01"/>
</g>
<!-- o_12 -->
<g id="node18" class="node">
<title>o_12</title>
<ellipse fill="#6493ce" stroke="black" cx="667.8" cy="-4107.65" rx="10.8" ry="10.8"/>
</g>
<!-- o_12&#45;&gt;o_13 -->
<g id="edge51" class="edge">
<title>o_12&#45;&gt;o_13</title>
<path fill="none" stroke="black" stroke-dasharray="5,2" d="M665.92,-4096.68C664.5,-4086.05 663.98,-4069.22 672.05,-4057.85 684.03,-4040.98 708.72,-4034.16 722.99,-4031.55"/>
<text text-anchor="middle" x="689.67" y="-4059.85" font-family="sans-serif" font-size="20.00" fill="#6493ce">125</text>
</g>
<!-- o_14 -->
<g id="node20" class="node">
<title>o_14</title>
<ellipse fill="#6493ce" stroke="black" cx="574.8" cy="-4029.05" rx="10.8" ry="10.8"/>
</g>
<!-- o_12&#45;&gt;o_14 -->
<g id="edge41" class="edge">
<title>o_12&#45;&gt;o_14</title>
<path fill="none" stroke="black" d="M659.87,-4100.12C642.39,-4085.72 600.68,-4051.37 582.97,-4036.78"/>
</g>
<!-- i_13 -->
<g id="node32" class="node">
<title>i_13</title>
<polygon fill="#6493ce" stroke="black" points="828.8,-3786.05 818,-3775.25 828.8,-3764.45 839.6,-3775.25 828.8,-3786.05"/>
<text text-anchor="middle" x="806.75" y="-3788.05" font-family="sans-serif" font-size="20.00">35</text>
</g>
<!-- o_13&#45;&gt;i_13 -->
<g id="edge48" class="edge">
<title>o_13&#45;&gt;i_13</title>
<path fill="none" stroke="black" d="M741.12,-4020.74C753.15,-4007.91 775.8,-3979.96 775.8,-3951.45 775.8,-3951.45 775.8,-3951.45 775.8,-3832.55 775.8,-3805.97 807.5,-3786.83 821.87,-3779.52"/>
<text text-anchor="middle" x="871.05" y="-3883.35" font-family="sans-serif" font-size="20.00" fill="#6493ce">freq = 35 / dep = 0.97</text>
</g>
<!-- o_14&#45;&gt;o_15 -->
<g id="edge50" class="edge">
<title>o_14&#45;&gt;o_15</title>
<path fill="none" stroke="black" stroke-dasharray="5,2" d="M574.8,-4018.04C574.8,-4003.44 574.8,-3976.45 574.8,-3961.71"/>
<text text-anchor="middle" x="586.05" y="-3981.25" font-family="sans-serif" font-size="20.00" fill="#6493ce">26</text>
</g>
<!-- i_15 -->
<g id="node34" class="node">
<title>i_15</title>
<polygon fill="#6493ce" stroke="black" points="406.8,-3394.15 396,-3383.35 406.8,-3372.55 417.6,-3383.35 406.8,-3394.15"/>
<text text-anchor="middle" x="379.88" y="-3396.15" font-family="sans-serif" font-size="20.00">118</text>
</g>
<!-- o_14&#45;&gt;i_15 -->
<g id="edge42" class="edge">
<title>o_14&#45;&gt;i_15</title>
<path fill="none" stroke="black" d="M564.56,-4025.41C529.86,-4016.17 418.8,-3984.04 418.8,-3951.45 418.8,-3951.45 418.8,-3951.45 418.8,-3440.65 418.8,-3422.86 413,-3402.59 409.46,-3391.89"/>
<text text-anchor="middle" x="518.92" y="-3708.15" font-family="sans-serif" font-size="20.00" fill="#6493ce">freq = 118 / dep = 0.99</text>
</g>
<!-- i_24 -->
<g id="node42" class="node">
<title>i_24</title>
<polygon fill="#6493ce" stroke="black" points="665.8,-3727.45 655,-3716.65 665.8,-3705.85 676.6,-3716.65 665.8,-3727.45"/>
<text text-anchor="middle" x="649.38" y="-3729.45" font-family="sans-serif" font-size="20.00">6</text>
</g>
<!-- o_15&#45;&gt;i_24 -->
<g id="edge45" class="edge">
<title>o_15&#45;&gt;i_24</title>
<path fill="none" stroke="black" d="M567.15,-3942.19C557.4,-3932.11 541.8,-3912.87 541.8,-3892.85 541.8,-3892.85 541.8,-3892.85 541.8,-3774.25 541.8,-3761.41 630.9,-3729.67 658.04,-3720.3"/>
<text text-anchor="middle" x="631.42" y="-3825.05" font-family="sans-serif" font-size="20.00" fill="#6493ce">freq = 6 / dep = 0.86</text>
</g>
<!-- o_16&#45;&gt;o_12 -->
<g id="edge40" class="edge">
<title>o_16&#45;&gt;o_12</title>
<path fill="none" stroke="black" d="M667.8,-4155.13C667.8,-4144.83 667.8,-4128.95 667.8,-4118.68"/>
</g>
<!-- i_18 -->
<g id="node36" class="node">
<title>i_18</title>
<polygon fill="#6493ce" stroke="black" points="562.8,-2347.75 552,-2336.95 562.8,-2326.15 573.6,-2336.95 562.8,-2347.75"/>
</g>
<!-- o_17&#45;&gt;i_18 -->
<g id="edge36" class="edge">
<title>o_17&#45;&gt;i_18</title>
<path fill="none" stroke="black" d="M624.8,-2579.18C624.8,-2567.93 624.8,-2549.08 624.8,-2532.85 624.8,-2532.85 624.8,-2532.85 624.8,-2414.55 624.8,-2379.31 584.65,-2351.18 568.97,-2341.54"/>
<text text-anchor="middle" x="720.05" y="-2465.35" font-family="sans-serif" font-size="20.00" fill="#6493ce">freq = 54 / dep = 0.95</text>
</g>
<!-- i_17 -->
<g id="node35" class="node">
<title>i_17</title>
<polygon fill="#6493ce" stroke="black" points="496.8,-2426.35 486,-2415.55 496.8,-2404.75 507.6,-2415.55 496.8,-2426.35"/>
</g>
<!-- o_19&#45;&gt;i_17 -->
<g id="edge32" class="edge">
<title>o_19&#45;&gt;i_17</title>
<path fill="none" stroke="black" d="M378.8,-2668.28C378.8,-2651.97 378.8,-2619.05 378.8,-2591.15 378.8,-2591.15 378.8,-2591.15 378.8,-2472.85 378.8,-2425.18 458.2,-2417.83 486.74,-2416.73"/>
<text text-anchor="middle" x="474.05" y="-2523.35" font-family="sans-serif" font-size="20.00" fill="#6493ce">freq = 27 / dep = 0.96</text>
</g>
<!-- i_21 -->
<g id="node39" class="node">
<title>i_21</title>
<polygon fill="#6493ce" stroke="black" points="513.8,-1896.85 503,-1886.05 513.8,-1875.25 524.6,-1886.05 513.8,-1896.85"/>
<text text-anchor="middle" x="491.75" y="-1898.85" font-family="sans-serif" font-size="20.00">95</text>
</g>
<!-- o_20&#45;&gt;i_21 -->
<g id="edge8" class="edge">
<title>o_20&#45;&gt;i_21</title>
<path fill="none" stroke="black" d="M513.8,-2088.61C513.8,-2079.13 513.8,-2064.52 513.8,-2051.85 513.8,-2051.85 513.8,-2051.85 513.8,-1933.85 513.8,-1921.34 513.8,-1906.94 513.8,-1897.46"/>
<text text-anchor="start" x="513.8" y="-1994.85" font-family="sans-serif" font-size="20.00" fill="#6493ce">freq = 94 / dep = 0.99</text>
<text text-anchor="start" x="513.8" y="-1973.85" font-family="sans-serif" font-size="20.00" fill="#9f64ce">freq = 13 / dep = 0.93</text>
</g>
<!-- i_22 -->
<g id="node40" class="node">
<title>i_22</title>
<polygon fill="#6493ce" stroke="black" points="305.8,-1504.55 295,-1493.75 305.8,-1482.95 316.6,-1493.75 305.8,-1504.55"/>
<text text-anchor="middle" x="283.75" y="-1506.55" font-family="sans-serif" font-size="20.00">53</text>
</g>
<!-- o_21&#45;&gt;i_22 -->
<g id="edge29" class="edge">
<title>o_21&#45;&gt;i_22</title>
<path fill="none" stroke="black" d="M374.76,-1705.67C350.73,-1703.52 295.8,-1694.77 295.8,-1659.55 295.8,-1659.55 295.8,-1659.55 295.8,-1541.55 295.8,-1527.43 300.21,-1511.42 303.17,-1502.26"/>
<text text-anchor="start" x="295.8" y="-1602.55" font-family="sans-serif" font-size="20.00" fill="#6493ce">freq = 46 / dep = 0.98</text>
<text text-anchor="start" x="301.42" y="-1581.55" font-family="sans-serif" font-size="20.00" fill="#9f64ce">freq = 8 / dep = 0.89</text>
</g>
<!-- i_27 -->
<g id="node45" class="node">
<title>i_27</title>
<polygon fill="#6493ce" stroke="black" points="549.8,-1504.55 539,-1493.75 549.8,-1482.95 560.6,-1493.75 549.8,-1504.55"/>
<text text-anchor="middle" x="527.75" y="-1506.55" font-family="sans-serif" font-size="20.00">30</text>
</g>
<!-- o_22&#45;&gt;i_27 -->
<g id="edge26" class="edge">
<title>o_22&#45;&gt;i_27</title>
<path fill="none" stroke="black" d="M540.9,-1698.73C548.29,-1689.98 558.8,-1674.84 558.8,-1659.55 558.8,-1659.55 558.8,-1659.55 558.8,-1541.55 558.8,-1527.65 554.92,-1511.84 552.26,-1502.61"/>
<text text-anchor="start" x="558.8" y="-1602.55" font-family="sans-serif" font-size="20.00" fill="#6493ce">freq = 30 / dep = 0.97</text>
<text text-anchor="start" x="564.42" y="-1581.55" font-family="sans-serif" font-size="20.00" fill="#9f64ce">freq = 3 / dep = 0.75</text>
</g>
<!-- i_26 -->
<g id="node44" class="node">
<title>i_26</title>
<polygon fill="#6493ce" stroke="black" points="270.8,-740.95 260,-730.15 270.8,-719.35 281.6,-730.15 270.8,-740.95"/>
<text text-anchor="middle" x="254.38" y="-742.95" font-family="sans-serif" font-size="20.00">5</text>
</g>
<!-- o_23&#45;&gt;i_26 -->
<g id="edge17" class="edge">
<title>o_23&#45;&gt;i_26</title>
<path fill="none" stroke="black" d="M281.87,-912.25C278.37,-902.92 273.8,-888.2 273.8,-874.95 273.8,-874.95 273.8,-874.95 273.8,-777.95 273.8,-764.92 272.63,-749.9 271.75,-740.46"/>
<text text-anchor="start" x="273.8" y="-817.95" font-family="sans-serif" font-size="20.00" fill="#6493ce">freq = 5 / dep = 0.83</text>
</g>
<!-- i_25 -->
<g id="node43" class="node">
<title>i_25</title>
<polygon fill="#6493ce" stroke="black" points="620.8,-3304.8 610,-3294 620.8,-3283.2 631.6,-3294 620.8,-3304.8"/>
<text text-anchor="middle" x="598.75" y="-3306.8" font-family="sans-serif" font-size="20.00">25</text>
</g>
<!-- o_24&#45;&gt;i_25 -->
<g id="edge14" class="edge">
<title>o_24&#45;&gt;i_25</title>
<path fill="none" stroke="black" d="M614.8,-3526.91C614.8,-3517.43 614.8,-3502.83 614.8,-3490.15 614.8,-3490.15 614.8,-3490.15 614.8,-3382.35 614.8,-3353.92 618,-3320.42 619.73,-3304.42"/>
<text text-anchor="start" x="614.8" y="-3433.15" font-family="sans-serif" font-size="20.00" fill="#6493ce">freq = 18 / dep = 0.95</text>
</g>
<!-- i_14 -->
<g id="node33" class="node">
<title>i_14</title>
<polygon fill="#6493ce" stroke="black" points="624.8,-2810.4 614,-2799.6 624.8,-2788.8 635.6,-2799.6 624.8,-2810.4"/>
<text text-anchor="middle" x="602.75" y="-2812.4" font-family="sans-serif" font-size="20.00">13</text>
</g>
<!-- o_25&#45;&gt;i_14 -->
<g id="edge23" class="edge">
<title>o_25&#45;&gt;i_14</title>
<path fill="none" stroke="black" d="M624.8,-3073.59C624.8,-3060.54 624.8,-3036.93 624.8,-3016.75 624.8,-3016.75 624.8,-3016.75 624.8,-2887.95 624.8,-2860.2 624.8,-2827.49 624.8,-2811.09"/>
<text text-anchor="start" x="624.8" y="-2938.75" font-family="sans-serif" font-size="20.00" fill="#6493ce">freq = 9 / dep = 0.90</text>
</g>
<!-- i_23 -->
<g id="node41" class="node">
<title>i_23</title>
<polygon fill="#6493ce" stroke="black" points="431.8,-1112.25 421,-1101.45 431.8,-1090.65 442.6,-1101.45 431.8,-1112.25"/>
<text text-anchor="middle" x="409.75" y="-1114.25" font-family="sans-serif" font-size="20.00">30</text>
</g>
<!-- o_26&#45;&gt;i_23 -->
<g id="edge11" class="edge">
<title>o_26&#45;&gt;i_23</title>
<path fill="none" stroke="black" d="M463.99,-1308.59C452.76,-1300.88 434.8,-1285.67 434.8,-1267.25 434.8,-1267.25 434.8,-1267.25 434.8,-1149.25 434.8,-1136.22 433.63,-1121.2 432.75,-1111.76"/>
<text text-anchor="start" x="434.8" y="-1210.25" font-family="sans-serif" font-size="20.00" fill="#6493ce">freq = 23 / dep = 0.96</text>
<text text-anchor="start" x="440.42" y="-1189.25" font-family="sans-serif" font-size="20.00" fill="#9f64ce">freq = 3 / dep = 0.75</text>
</g>
<!-- i_13&#45;&gt;pick item -->
<g id="edge49" class="edge">
<title>i_13&#45;&gt;pick item</title>
<path fill="none" stroke="black" d="M834.08,-3769.18C843.17,-3759.89 860.8,-3739.1 860.8,-3717.65 860.8,-3717.65 860.8,-3717.65 860.8,-2798.6 860.8,-2730.68 781.66,-2701.82 715.04,-2689.56"/>
<polygon fill="black" stroke="black" points="705.24,-2687.87 715.86,-2685.13 708.97,-2688.51 715.1,-2689.57 715.1,-2689.57 715.1,-2689.57 708.97,-2688.51 714.33,-2694 705.24,-2687.87"/>
</g>
<!-- i_14&#45;&gt;pick item -->
<g id="edge22" class="edge">
<title>i_14&#45;&gt;pick item</title>
<path fill="none" stroke="black" d="M624.8,-2788.12C624.8,-2775.58 624.8,-2753.67 624.8,-2732.88"/>
<polygon fill="black" stroke="black" points="624.8,-2723.06 629.3,-2733.06 624.8,-2726.84 624.8,-2733.06 624.8,-2733.06 624.8,-2733.06 624.8,-2726.84 620.3,-2733.06 624.8,-2723.06"/>
</g>
<!-- i_15&#45;&gt;confirm order -->
<g id="edge43" class="edge">
<title>i_15&#45;&gt;confirm order</title>
<path fill="none" stroke="black" d="M403.9,-3374.9C401.29,-3368.21 397.22,-3357.73 392.86,-3346.53"/>
<polygon fill="black" stroke="black" points="389.26,-3337.28 397.08,-3344.96 390.63,-3340.8 392.88,-3346.6 392.88,-3346.6 392.88,-3346.6 390.63,-3340.8 388.69,-3348.23 389.26,-3337.28"/>
</g>
<!-- i_17&#45;&gt;i_18 -->
<g id="edge52" class="edge">
<title>i_17&#45;&gt;i_18</title>
<path fill="none" stroke="black" stroke-dasharray="5,2" d="M501.55,-2409.04C513.72,-2394.91 545.97,-2357.49 558.1,-2343.41"/>
<text text-anchor="middle" x="549.05" y="-2367.75" font-family="sans-serif" font-size="20.00" fill="#6493ce">33</text>
</g>
<!-- i_20 -->
<g id="node38" class="node">
<title>i_20</title>
<polygon fill="#6493ce" stroke="black" points="496.8,-2347.75 486,-2336.95 496.8,-2326.15 507.6,-2336.95 496.8,-2347.75"/>
<text text-anchor="middle" x="474.75" y="-2349.75" font-family="sans-serif" font-size="20.00">21</text>
</g>
<!-- i_17&#45;&gt;i_20 -->
<g id="edge33" class="edge">
<title>i_17&#45;&gt;i_20</title>
<path fill="none" stroke="black" d="M496.8,-2404.22C496.8,-2389.52 496.8,-2362.73 496.8,-2348.12"/>
</g>
<!-- i_19 -->
<g id="node37" class="node">
<title>i_19</title>
<polygon fill="#6493ce" stroke="black" points="562.8,-2289.15 552,-2278.35 562.8,-2267.55 573.6,-2278.35 562.8,-2289.15"/>
<text text-anchor="middle" x="540.75" y="-2291.15" font-family="sans-serif" font-size="20.00">66</text>
</g>
<!-- i_18&#45;&gt;i_19 -->
<g id="edge37" class="edge">
<title>i_18&#45;&gt;i_19</title>
<path fill="none" stroke="black" d="M562.8,-2325.57C562.8,-2315.36 562.8,-2299.86 562.8,-2289.67"/>
</g>
<!-- i_19&#45;&gt;create package -->
<g id="edge38" class="edge">
<title>i_19&#45;&gt;create package</title>
<path fill="none" stroke="black" d="M559.12,-2270.78C555.32,-2264.02 549.03,-2252.81 542.33,-2240.86"/>
<polygon fill="black" stroke="black" points="537.5,-2232.25 546.32,-2238.77 539.35,-2235.55 542.39,-2240.97 542.39,-2240.97 542.39,-2240.97 539.35,-2235.55 538.47,-2243.17 537.5,-2232.25"/>
</g>
<!-- i_20&#45;&gt;create package -->
<g id="edge34" class="edge">
<title>i_20&#45;&gt;create package</title>
<path fill="none" stroke="black" d="M497.86,-2326.82C499.81,-2310.07 504.1,-2273.29 507.73,-2242.08"/>
<polygon fill="black" stroke="black" points="508.85,-2232.53 512.16,-2242.98 508.41,-2236.28 507.69,-2242.46 507.69,-2242.46 507.69,-2242.46 508.41,-2236.28 503.22,-2241.94 508.85,-2232.53"/>
</g>
<!-- i_21&#45;&gt;send package -->
<g id="edge7" class="edge">
<title>i_21&#45;&gt;send package</title>
<path fill="none" stroke="black" d="M513.8,-1874.69C513.8,-1868.26 513.8,-1859.45 513.8,-1850.09"/>
<polygon fill="black" stroke="black" points="513.8,-1840.17 518.3,-1850.17 513.8,-1843.95 513.8,-1850.17 513.8,-1850.17 513.8,-1850.17 513.8,-1843.95 509.3,-1850.17 513.8,-1840.17"/>
</g>
<!-- i_22&#45;&gt;package delivered -->
<g id="edge28" class="edge">
<title>i_22&#45;&gt;package delivered</title>
<path fill="none" stroke="black" d="M306.53,-1483.06C307.69,-1466.95 309.8,-1433.64 309.8,-1405.4 309.8,-1405.4 309.8,-1405.4 309.8,-1100.45 309.8,-1089.05 310.23,-1076.84 310.84,-1065.26"/>
<polygon fill="black" stroke="black" points="311.39,-1055.61 315.31,-1065.86 311.18,-1059.39 310.82,-1065.6 310.82,-1065.6 310.82,-1065.6 311.18,-1059.39 306.32,-1065.34 311.39,-1055.61"/>
</g>
<!-- i_23&#45;&gt;package delivered -->
<g id="edge10" class="edge">
<title>i_23&#45;&gt;package delivered</title>
<path fill="none" stroke="black" d="M425.84,-1096C416.71,-1089.18 398.3,-1075.44 379.05,-1061.07"/>
<polygon fill="black" stroke="black" points="371.16,-1055.18 381.86,-1057.55 374.19,-1057.44 379.17,-1061.16 379.17,-1061.16 379.17,-1061.16 374.19,-1057.44 376.48,-1064.76 371.16,-1055.18"/>
</g>
<!-- i_24&#45;&gt;item out of stock -->
<g id="edge46" class="edge">
<title>i_24&#45;&gt;item out of stock</title>
<path fill="none" stroke="black" d="M663.23,-3707.9C661.02,-3701.25 657.63,-3691.05 654.01,-3680.14"/>
<polygon fill="black" stroke="black" points="650.88,-3670.72 658.3,-3678.79 652.07,-3674.3 654.03,-3680.21 654.03,-3680.21 654.03,-3680.21 652.07,-3674.3 649.76,-3681.62 650.88,-3670.72"/>
</g>
<!-- i_25&#45;&gt;reorder item -->
<g id="edge13" class="edge">
<title>i_25&#45;&gt;reorder item</title>
<path fill="none" stroke="black" d="M620.89,-3282.93C620.99,-3270.5 621.18,-3248.41 621.36,-3227.43"/>
<polygon fill="black" stroke="black" points="621.44,-3217.51 625.85,-3227.55 621.41,-3221.29 621.35,-3227.51 621.35,-3227.51 621.35,-3227.51 621.41,-3221.29 616.85,-3227.47 621.44,-3217.51"/>
</g>
<!-- i_26&#45;&gt;payment reminder -->
<g id="edge16" class="edge">
<title>i_26&#45;&gt;payment reminder</title>
<path fill="none" stroke="black" d="M264.42,-725.17C253.61,-718.42 230.5,-704 206.49,-689.03"/>
<polygon fill="black" stroke="black" points="198.3,-683.92 209.17,-685.39 201.51,-685.92 206.79,-689.21 206.79,-689.21 206.79,-689.21 201.51,-685.92 204.41,-693.03 198.3,-683.92"/>
</g>
<!-- i_27&#45;&gt;failed delivery -->
<g id="edge25" class="edge">
<title>i_27&#45;&gt;failed delivery</title>
<path fill="none" stroke="black" d="M545.99,-1486.47C541.9,-1479.73 535.01,-1468.37 527.65,-1456.24"/>
<polygon fill="black" stroke="black" points="522.6,-1447.93 531.64,-1454.14 524.56,-1451.16 527.79,-1456.48 527.79,-1456.48 527.79,-1456.48 524.56,-1451.16 523.94,-1458.81 522.6,-1447.93"/>
</g>
<!-- legend_entities -->
<g id="node46" class="node">
<title>legend_entities</title>
<text text-anchor="start" x="685.3" y="-197.25" font-family="sans-serif" font-weight="bold" font-size="25.00">Object Type</text>
<text text-anchor="start" x="1230.3" y="-197.25" font-family="sans-serif" font-weight="bold" font-size="25.00">Color</text>
<text text-anchor="start" x="685.3" y="-151.25" font-family="sans-serif" font-size="25.00">orders</text>
<polygon fill="#64ce9f" stroke="none" points="1228.3,-148 1228.3,-177 1297.3,-177 1297.3,-148 1228.3,-148"/>
<text text-anchor="start" x="1230.3" y="-156.7" font-family="sans-serif" font-size="14.00"> </text>
<text text-anchor="start" x="685.3" y="-106.25" font-family="sans-serif" font-size="25.00">items</text>
<polygon fill="#6493ce" stroke="none" points="1228.3,-103 1228.3,-132 1297.3,-132 1297.3,-103 1228.3,-103"/>
<text text-anchor="start" x="1230.3" y="-111.7" font-family="sans-serif" font-size="14.00"> </text>
<text text-anchor="start" x="685.3" y="-61.25" font-family="sans-serif" font-size="25.00">packages</text>
<polygon fill="#9f64ce" stroke="none" points="1228.3,-58 1228.3,-87 1297.3,-87 1297.3,-58 1228.3,-58"/>
<text text-anchor="start" x="1230.3" y="-66.7" font-family="sans-serif" font-size="14.00"> </text>
</g>
<!-- invisible -->
<!-- invisible&#45;&gt;legend_entities -->
</g>
</svg>
